#!OML:ASF H:\Terrain\Patient Classification 1\Terrain2\Thursday\justin.ASF
:FULLY-SPECIFIED
:DEGREES
2157
root 10.1317 17.6952 -10.4768 144.97 -84.635 -148.738
lowerback 5.63932 2.26582 1.14608
upperback 3.19887 2.99814 1.12101
thorax 0.130994 1.47173 0.346738
lowerneck -10.4553 2.58595 -7.28452
upperneck 42.0919 2.89688 2.10261
head 16.8889 -0.430722 2.51684
rclavicle -4.89694e-014 -1.67725e-015
rhumerus -36.9005 -14.5425 -74.8951
rradius 25.8305
rwrist -8.55428
rhand -22.3441 13.1583
rfingers 7.12502
rthumb 4.07645 -16.7824
lclavicle -4.89694e-014 -1.67725e-015
lhumerus -39.5169 11.2163 77.8357
lradius 30.9446
lwrist 4.34764
lhand -21.3609 23.9621
lfingers 7.12502
lthumb 5.02586 53.8825
rfemur -11.0441 -7.0835 13.3318
rtibia 95.4152
rfoot 7.65843 4.94
rtoes 10.0527
lfemur -5.89953 7.07271 -17.7324
ltibia 30.6359
lfoot -7.69243 -10.8048
ltoes 14.3583
2158
root 10.0667 17.7131 -10.4817 146.857 -85.0871 -150.767
lowerback 5.96838 2.18259 0.512889
upperback 3.26197 2.85736 1.10399
thorax -0.0176384 1.39221 0.678021
lowerneck -10.5165 2.63208 -7.32153
upperneck 42.0567 3.0469 1.96958
head 16.8795 -0.389113 2.48812
rclavicle 8.74187e-015 8.50426e-015
rhumerus -36.7418 -14.5328 -74.8727
rradius 25.9764
rwrist -7.89242
rhand -22.4933 12.9719
rfingers 7.12502
rthumb 3.93241 -16.9716
lclavicle 8.74187e-015 8.50426e-015
lhumerus -39.2057 11.1751 77.8805
lradius 31.7871
lwrist 3.76631
lhand -20.3301 22.5544
lfingers 7.12502
lthumb 6.02111 52.4489
rfemur -12.6194 -7.70198 12.8771
rtibia 97.5124
rfoot 6.82192 4.45745
rtoes 6.50133
lfemur -5.17804 6.68313 -18.1779
ltibia 29.8647
lfoot -7.10317 -10.6108
ltoes 14.6716
2159
root 10.0009 17.7366 -10.4817 144.203 -85.2727 -148.182
lowerback 6.2792 2.09947 0.502793
upperback 3.30109 2.74551 1.18881
thorax -0.153309 1.33355 0.766113
lowerneck -10.841 2.67326 -7.6525
upperneck 42.2981 3.1521 2.18169
head 17.0783 -0.385099 2.67289
rclavicle 3.03496e-014 1.47225e-015
rhumerus -36.6233 -14.4752 -74.8089
rradius 26.2161
rwrist -7.45165
rhand -21.7645 12.4187
rfingers 7.12502
rthumb 4.63616 -17.5106
lclavicle 3.03496e-014 1.47225e-015
lhumerus -38.8644 10.5876 78.3045
lradius 32.9185
lwrist 4.47986
lhand -20.3165 22.1499
lfingers 7.12502
lthumb 6.03426 52.044
rfemur -14.2379 -8.52587 12.9907
rtibia 99.4273
rfoot 5.28095 4.22328
rtoes 3.71862
lfemur -4.58123 6.30112 -18.0725
ltibia 29.1984
lfoot -6.42053 -10.6395
ltoes 15.8334
2160
root 9.93415 17.7621 -10.4763 142.907 -85.4425 -146.914
lowerback 6.53617 1.81713 0.430843
upperback 3.32616 2.36547 1.30249
thorax -0.2737 1.1401 0.939075
lowerneck -11.1679 2.88147 -8.24941
upperneck 42.4994 3.61384 2.33484
head 17.2255 -0.288931 2.93459
rclavicle 2.92182e-014 -6.11263e-015
rhumerus -36.343 -13.7989 -74.9053
rradius 26.4425
rwrist -6.77453
rhand -20.9319 12.2655
rfingers 7.12502
rthumb 5.44008 -17.6446
lclavicle 2.92182e-014 -6.11263e-015
lhumerus -38.8118 10.8584 78.5103
lradius 34.1142
lwrist 4.98863
lhand -20.4185 21.6556
lfingers 7.12502
lthumb 5.93578 51.5524
rfemur -15.9705 -9.34568 12.8762
rtibia 101.31
rfoot 3.67786 3.86034
rtoes 4.11915
lfemur -4.02498 6.23078 -18.0464
ltibia 28.5046
lfoot -5.73984 -10.8486
ltoes 15.9265
2161
root 9.87044 17.7841 -10.4734 147.137 -85.9537 -151.209
lowerback 6.70373 1.32164 -0.507309
upperback 3.46654 1.64717 1.54608
thorax -0.245354 0.765021 1.76197
lowerneck -11.468 3.28056 -8.87415
upperneck 42.4651 4.63204 1.89094
head 17.215 -0.0380526 3.0098
rclavicle -1.68967e-015 -1.03368e-014
rhumerus -35.5682 -11.9821 -75.193
rradius 26.6335
rwrist -6.59879
rhand -20.7775 12.0505
rfingers 7.12502
rthumb 5.58919 -17.8558
lclavicle -1.68967e-015 -1.03368e-014
lhumerus -38.8783 11.9221 78.7903
lradius 35.4511
lwrist 5.51501
lhand -20.533 20.8658
lfingers 7.12502
lthumb 5.82524 50.7657
rfemur -17.7169 -10.2366 12.0121
rtibia 103.164
rfoot 1.95788 3.66783
rtoes 6.46444
lfemur -3.48187 6.36815 -18.6093
ltibia 27.8484
lfoot -5.15918 -11.1392
ltoes 14.9321
2162
root 9.80633 17.8053 -10.4731 150.978 -86.495 -155.119
lowerback 6.84634 0.966284 -1.31504
upperback 3.6287 1.11967 1.72382
thorax -0.156643 0.484887 2.43562
lowerneck -11.7135 3.54237 -9.09404
upperneck 42.4526 5.33225 1.4005
head 17.2445 0.140526 2.94207
rclavicle -6.43565e-015 -6.16232e-015
rhumerus -34.911 -10.7406 -75.3571
rradius 26.8937
rwrist -6.88683
rhand -20.8118 11.9161
rfingers 7.12502
rthumb 5.55604 -17.9911
lclavicle -6.43565e-015 -6.16232e-015
lhumerus -38.698 12.0252 79.3279
lradius 36.8065
lwrist 6.66008
lhand -20.8666 20.372
lfingers 7.12502
lthumb 5.50312 50.2805
rfemur -19.4224 -11.1093 11.307
rtibia 104.854
rfoot -0.272972 3.77539
rtoes 5.90064
lfemur -2.94154 6.60149 -19.1086
ltibia 27.2625
lfoot -4.5323 -11.4392
ltoes 14.0289
2163
root 9.74002 17.8319 -10.4745 149.836 -86.8195 -154.06
lowerback 7.11215 0.861131 -1.44376
upperback 3.69157 0.965535 1.70948
thorax -0.232471 0.404682 2.50173
lowerneck -11.8069 3.57174 -9.01736
upperneck 42.5227 5.38635 1.3503
head 17.3106 0.161422 2.91917
rclavicle 1.68967e-015 9.74045e-015
rhumerus -34.7905 -10.7593 -75.4115
rradius 27.3054
rwrist -7.06935
rhand -20.3588 11.8364
rfingers 7.12502
rthumb 5.99344 -18.0588
lclavicle 1.68967e-015 9.74045e-015
lhumerus -38.4041 11.2028 79.7408
lradius 37.9654
lwrist 7.51308
lhand -21.1506 20.2742
lfingers 7.12502
lthumb 5.22896 50.1897
rfemur -21.0644 -11.8583 11.2006
rtibia 106.283
rfoot -2.55293 3.74114
rtoes 5.82076
lfemur -2.38258 6.57408 -19.1674
ltibia 26.7431
lfoot -3.93439 -11.6364
ltoes 13.4051
2164
root 9.67353 17.8588 -10.4773 152.844 -87.1364 -157.113
lowerback 7.33972 0.600399 -2.06922
upperback 3.72379 0.574509 1.89375
thorax -0.309968 0.198496 3.07297
lowerneck -11.927 3.76503 -9.48111
upperneck 42.4611 5.8774 1.25405
head 17.2631 0.275377 3.03538
rclavicle -3.8266e-015 -3.97569e-015
rhumerus -34.5133 -9.69379 -75.5524
rradius 27.7587
rwrist -7.46612
rhand -20.1725 11.7454
rfingers 7.12502
rthumb 6.17326 -18.1446
lclavicle -3.8266e-015 -3.97569e-015
lhumerus -38.4702 11.4716 80.0383
lradius 39.2805
lwrist 7.82694
lhand -21.073 20.1626
lfingers 7.12502
lthumb 5.30387 50.0762
rfemur -22.7341 -12.6811 10.9442
rtibia 107.483
rfoot -4.34187 3.73197
rtoes 6.47225
lfemur -1.969 6.49847 -19.389
ltibia 26.3667
lfoot -3.4062 -11.93
ltoes 13.1847
2165
root 9.6083 17.8835 -10.4826 154.883 -87.4289 -159.183
lowerback 7.57118 1.42332 -1.39802
upperback 3.86521 1.69881 0.906638
thorax -0.321893 0.776322 1.58641
lowerneck -11.956 2.89391 -7.66041
upperneck 42.277 3.97607 1.45615
head 17.3343 -0.139514 2.50737
rclavicle 8.34274e-015 8.44835e-015
rhumerus -35.276 -13.2016 -75.7928
rradius 28.4251
rwrist -7.48205
rhand -20.618 11.9783
rfingers 7.12502
rthumb 5.74316 -17.9238
lclavicle 8.34274e-015 8.44835e-015
lhumerus -37.1507 7.22461 80.2071
lradius 40.3984
lwrist 8.67181
lhand -21.1731 20.159
lfingers 7.12502
lthumb 5.20722 50.075
rfemur -24.4088 -13.4567 10.8853
rtibia 108.482
rfoot -5.92958 3.9477
rtoes 5.87104
lfemur -1.62741 6.56932 -19.5483
ltibia 26.1052
lfoot -3.37058 -12.2262
ltoes 10.1823
